<svg width="24" height="24" viewBox="0 0 24 24" fill="none" xmlns="http://www.w3.org/2000/svg">
<path fill-rule="evenodd" clip-rule="evenodd" d="M8 9C8.28 9 8 9 8.5 9L15.5 9C16 9 15.72 9 16 9C16.55 9 17 8.55 17 8C17 7.72 16.89 7.47 16.71 7.29L12.71 3.29C12.53 3.11 12.28 3 12 3C11.72 3 11.47 3.11 11.29 3.29L7.29 7.29C7.11 7.47 7 7.72 7 8C7 8.55 7.45 9 8 9Z" fill="#fff"/>
<path fill-rule="evenodd" clip-rule="evenodd" d="M16 15C15.72 15 16 15 15.5 15H8.5C8 15 8.28 15 8 15C7.45 15 7 15.45 7 16C7 16.28 7.11 16.53 7.29 16.71L11.29 20.71C11.47 20.89 11.72 21 12 21C12.28 21 12.53 20.89 12.71 20.71L16.71 16.71C16.89 16.53 17 16.28 17 16C17 15.45 16.55 15 16 15Z" fill="#fff"/>
<path fill-rule="evenodd" clip-rule="evenodd" d="M8 9C8.28 9 8 9 8.5 9L15.5 9C16 9 15.72 9 16 9C16.55 9 17 8.55 17 8C17 7.72 16.89 7.47 16.71 7.29L12.71 3.29C12.53 3.11 12.28 3 12 3C11.72 3 11.47 3.11 11.29 3.29L7.29 7.29C7.11 7.47 7 7.72 7 8C7 8.55 7.45 9 8 9Z" fill="#fff"/>
<path fill-rule="evenodd" clip-rule="evenodd" d="M16 15C15.72 15 16 15 15.5 15H8.5C8 15 8.28 15 8 15C7.45 15 7 15.45 7 16C7 16.28 7.11 16.53 7.29 16.71L11.29 20.71C11.47 20.89 11.72 21 12 21C12.28 21 12.53 20.89 12.71 20.71L16.71 16.71C16.89 16.53 17 16.28 17 16C17 15.45 16.55 15 16 15Z" fill="#fff"/>
</svg>
