<svg width="12" height="12" viewBox="0 0 12 12" fill="none" xmlns="http://www.w3.org/2000/svg">
<path d="M5.66667 3.33333V8.66667L3 6L5.66667 3.33333ZM10.6667 12C11.0333 12 11.3472 11.8694 11.6083 11.6083C11.8694 11.3472 12 11.0333 12 10.6667V1.33333C12 0.966667 11.8694 0.652778 11.6083 0.391667C11.3472 0.130556 11.0333 0 10.6667 0H1.33333C0.966667 0 0.652778 0.130556 0.391667 0.391667C0.130556 0.652778 -2.38419e-07 0.966667 -2.38419e-07 1.33333V10.6667C-2.38419e-07 11.0333 0.130556 11.3472 0.391667 11.6083C0.652778 11.8694 0.966667 12 1.33333 12H10.6667ZM8.66667 10.6667V1.33333H10.6667V10.6667H8.66667ZM7.33333 10.6667H1.33333V1.33333H7.33333V10.6667Z" fill="#858585"/>
</svg>
