<svg width="24" height="24" viewBox="0 0 24 24" fill="none" xmlns="http://www.w3.org/2000/svg">
<path d="M17.9677 4H6.03226C3.80444 4 2 5.79561 2 8.01254V15.9875C2 18.2044 3.80444 20 6.03226 20H17.9677C20.1956 20 22 18.2044 22 15.9875V8.01254C22 5.79561 20.1956 4 17.9677 4ZM6.03226 6.00627H17.9677C19.0766 6.00627 19.9839 6.90909 19.9839 8.01254H4.01613C4.01613 6.90909 4.92339 6.00627 6.03226 6.00627ZM17.9677 17.9937H6.03226C4.92339 17.9937 4.01613 17.0909 4.01613 15.9875V11.0219H19.9839V15.9875C19.9839 17.0909 19.0766 17.9937 17.9677 17.9937Z" fill="#858585"/>
<path d="M6.80848 16.0075H10.0343C10.5242 16.0075 10.9214 15.6123 10.9214 15.1247V13.931C10.9214 13.4435 10.5242 13.0483 10.0343 13.0483H6.80848C6.31855 13.0483 5.92139 13.4435 5.92139 13.931V15.1247C5.92139 15.6123 6.31855 16.0075 6.80848 16.0075Z" fill="#858585"/>
</svg>
