<svg width="24" height="24" viewBox="0 0 24 24" fill="none" xmlns="http://www.w3.org/2000/svg">
<path d="M10 22H3C2.45 22 2 21.55 2 21V14C2 13.45 2.45 13 3 13H10C10.55 13 11 13.45 11 14V21C11 21.55 10.55 22 10 22ZM4 20H9V15H4V20Z" fill="#858585"/>
<path d="M21 22H14C13.45 22 13 21.55 13 21V14C13 13.45 13.45 13 14 13H21C21.55 13 22 13.45 22 14V21C22 21.55 21.55 22 21 22ZM15 20H20V15H15V20Z" fill="#858585"/>
<path d="M21 11H14C13.45 11 13 10.55 13 10V3C13 2.45 13.45 2 14 2H21C21.55 2 22 2.45 22 3V10C22 10.55 21.55 11 21 11ZM15 9H20V4H15V9Z" fill="#858585"/>
<path d="M6.5 11C4.02 11 2 8.98 2 6.5C2 4.02 4.02 2 6.5 2C8.98 2 11 4.02 11 6.5C11 8.98 8.98 11 6.5 11ZM6.5 4C5.12 4 4 5.12 4 6.5C4 7.88 5.12 9 6.5 9C7.88 9 9 7.88 9 6.5C9 5.12 7.88 4 6.5 4Z" fill="#858585"/>
</svg>
