<svg width="24" height="24" viewBox="0 0 24 24" fill="none" xmlns="http://www.w3.org/2000/svg">
<path d="M11.4998 22C10.3698 22 9.27982 21.51 8.51982 20.67C8.14982 20.26 8.18982 19.63 8.59982 19.26C9.00982 18.89 9.63982 18.93 10.0098 19.34C10.7698 20.19 12.2298 20.19 12.9898 19.34C13.3598 18.93 13.9898 18.89 14.3998 19.26C14.8098 19.63 14.8498 20.26 14.4798 20.67C13.7198 21.52 12.6398 22 11.4998 22Z" fill="#fff"/>
<path d="M17.0098 18H5.98982C4.84982 18 3.82982 17.37 3.31982 16.35C2.79982 15.31 2.91982 14.08 3.62982 13.14C4.40982 12.11 5.20982 9.7 5.50982 7.53C5.97982 3.97 8.08982 2 11.4298 2C14.7698 2 17.0198 4.02 17.4898 7.53C17.7798 9.7 18.5898 12.11 19.3698 13.14C20.0798 14.08 20.1998 15.31 19.6798 16.35C19.1798 17.36 18.1498 18 17.0098 18ZM11.5098 4C9.11982 4 7.82982 5.24 7.48982 7.8C7.20982 9.88 6.37982 12.82 5.22982 14.35C4.97982 14.68 4.92982 15.1 5.10982 15.46C5.18982 15.62 5.43982 16 5.98982 16H17.0098C17.5598 16 17.8098 15.62 17.8898 15.46C18.0698 15.1 18.0298 14.68 17.7698 14.35C16.6098 12.82 15.7898 9.88 15.5098 7.8C15.1698 5.24 13.8598 4 11.5098 4Z" fill="#fff"/>
</svg>
