<svg width="24" height="24" viewBox="0 0 24 24" fill="none" xmlns="http://www.w3.org/2000/svg">
<path d="M10.998 6H8.002C7.4509 6 7 6.45 7 7C7 7.55 7.4509 8 8.002 8H10.998C11.5491 8 12 7.55 12 7C12 6.45 11.5491 6 10.998 6Z" fill="#858585"/>
<path d="M10.998 10H8.002C7.4509 10 7 10.45 7 11C7 11.55 7.4509 12 8.002 12H10.998C11.5491 12 12 11.55 12 11C12 10.45 11.5491 10 10.998 10Z" fill="#858585"/>
<path d="M10.998 14H8.002C7.4509 14 7 14.45 7 15C7 15.55 7.4509 16 8.002 16H10.998C11.5491 16 12 15.55 12 15C12 14.45 11.5491 14 10.998 14Z" fill="#858585"/>
<path d="M21 19.9921H20V12.0162C20 9.7973 18.21 8.00011 16 8.00011H15V3.00402C15 2.45181 14.55 2 14 2L8 2.00011C5.79 2.00011 4 3.7973 4 6.01617V19.9921H3C2.45 19.9921 2 20.4439 2 20.9961C2 21.5483 2.45 22.0001 3 22.0001H21C21.55 22.0001 22 21.5483 22 20.9961C22 20.4439 21.55 19.9921 21 19.9921ZM15 10.0001L16 9.99208C17.1 9.99208 18 10.8957 18 12.0001V19.9921H15V10.0001ZM6 6.01617C6 4.91176 6.9 4.00814 8 4.00814H13V19.9921H6V6.01617Z" fill="#858585"/>
</svg>
