<svg width="24" height="24" viewBox="0 0 24 24" fill="none" xmlns="http://www.w3.org/2000/svg">
<path d="M12.5 12.99C12.76 12.99 12.97 13.2 12.97 13.51C12.97 13.77 12.76 13.98 12.5 13.98H10.02C9.47 13.98 9.01 14.43 9.01 14.99C9.01 15.55 9.46 16 10.02 16H11.02V16.99C11.02 17.54 11.47 18 12.03 18C12.59 18 13.04 17.55 13.04 16.99V15.94C14.16 15.69 14.99 14.69 14.99 13.46C14.99 12.09 13.87 10.97 12.5 10.97L11.47 10.96C11.21 10.96 11 10.75 11 10.49C11 10.23 11.21 10.02 11.47 10.02H14.01C14.56 10.02 15.02 9.57 15.02 9.01C15.02 8.45 14.57 8 14.01 8H13.01L13.03 7.03C13.04 6.48 12.6 6.01 12.04 6C11.48 6 11.02 6.43 11.01 6.99L10.99 8.05C9.84 8.27 8.97 9.28 8.97 10.5C8.97 11.87 10.09 12.99 11.46 12.99H12.5Z" fill="#858585"/>
<path d="M12 22C6.49 22 2 17.51 2 12C2 6.49 6.49 2 12 2C17.51 2 22 6.49 22 12C22 17.51 17.51 22 12 22ZM12 4C7.59 4 4 7.59 4 12C4 16.41 7.59 20 12 20C16.41 20 20 16.41 20 12C20 7.59 16.41 4 12 4Z" fill="#858585"/>
</svg>
