<svg width="24" height="24" viewBox="0 0 24 24" fill="none" xmlns="http://www.w3.org/2000/svg">
<path d="M19.34 5.39739L13.34 2.32283C12.5 1.89239 11.5 1.89239 10.66 2.32283L4.66 5.39739C3.64 5.92006 3 6.97566 3 8.14399V15.8611C3 17.0295 3.64 18.0851 4.66 18.6077L10.66 21.6823C11.08 21.8975 11.54 22 12 22C12.46 22 12.92 21.8975 13.34 21.6823L19.34 18.6077C20.36 18.0851 21 17.0295 21 15.8611V8.14399C21 6.97566 20.36 5.92006 19.34 5.39739ZM12 9.835L10.24 8.93313L16 5.98155L17.76 6.88342L12 9.835ZM11.55 4.15731C11.69 4.08557 11.84 4.05483 12 4.05483C12.16 4.05483 12.31 4.08557 12.45 4.15731L13.77 4.83371L8.01 7.7853L6.25 6.88342L11.55 4.15731ZM5.55 16.7835C5.21 16.6093 5 16.2608 5 15.8714V8.54369L11 11.6182V19.5711L5.55 16.7835ZM18.44 16.7835L12.99 19.5711V11.6182L18.99 8.54369V15.8714C18.99 16.2608 18.78 16.6093 18.44 16.7835Z" fill="#858585"/>
</svg>
