<svg width="24" height="24" viewBox="0 0 24 24" fill="none" xmlns="http://www.w3.org/2000/svg">
<path d="M21.7003 20.2736L17.2266 15.8213C18.3501 14.3675 19.0322 12.5502 19.0322 10.5714C19.0322 5.84654 15.2104 2 10.5161 2C5.8217 2 2 5.83645 2 10.5613C2 15.2862 5.8217 19.1328 10.5161 19.1328C12.5222 19.1328 14.3578 18.4261 15.8223 17.2549L20.296 21.7072C20.4966 21.899 20.7474 22 20.9982 22C21.2489 22 21.5198 21.899 21.7104 21.6971C22.1015 21.3034 22.0915 20.6572 21.7104 20.2736H21.7003ZM4.00614 10.5613C4.00614 6.947 6.92508 4.00908 10.5161 4.00908C14.1071 4.00908 17.026 6.947 17.026 10.5613C17.026 14.1757 14.1071 17.1136 10.5161 17.1136C6.92508 17.1136 4.00614 14.1757 4.00614 10.5613Z" fill="#fff"/>
</svg>
