<svg width="24" height="24" viewBox="0 0 24 24" fill="none" xmlns="http://www.w3.org/2000/svg">
<path d="M4 7H12C12.55 7 13 6.55 13 6C13 5.45 12.55 5 12 5H4C3.45 5 3 5.45 3 6C3 6.55 3.45 7 4 7Z" fill="#858585"/>
<path d="M12 17H4C3.45 17 3 17.45 3 18C3 18.55 3.45 19 4 19H12C12.55 19 13 18.55 13 18C13 17.45 12.55 17 12 17Z" fill="#858585"/>
<path d="M20 11H12C11.45 11 11 11.45 11 12C11 12.55 11.45 13 12 13H20C20.55 13 21 12.55 21 12C21 11.45 20.55 11 20 11Z" fill="#858585"/>
<path d="M20 17H17V16C17 15.45 16.55 15 16 15C15.45 15 15 15.45 15 16V20C15 20.55 15.45 21 16 21C16.55 21 17 20.55 17 20V19H20C20.55 19 21 18.55 21 18C21 17.45 20.55 17 20 17Z" fill="#858585"/>
<path d="M4 13H7V14C7 14.55 7.45 15 8 15C8.55 15 9 14.55 9 14V10C9 9.45 8.55 9 8 9C7.45 9 7 9.45 7 10V11H4C3.45 11 3 11.45 3 12C3 12.55 3.45 13 4 13Z" fill="#858585"/>
<path d="M16 9C16.55 9 17 8.55 17 8V7H20C20.55 7 21 6.55 21 6C21 5.45 20.55 5 20 5H17V4C17 3.45 16.55 3 16 3C15.45 3 15 3.45 15 4V8C15 8.55 15.45 9 16 9Z" fill="#858585"/>
</svg>
