<svg width="24" height="24" viewBox="0 0 24 24" fill="none" xmlns="http://www.w3.org/2000/svg">
<path d="M17.0385 6.38235C16.5096 6.38235 16.0769 6.82353 16.0769 7.36274V7.85294C14.9904 6.69608 13.4808 6 11.8654 6C8.63461 6 6 8.69608 6 12C6 15.3039 8.63461 18 11.8654 18C13.5962 18 15.2212 17.2255 16.3365 15.8725C16.6827 15.4608 16.625 14.8431 16.2212 14.4902C15.8173 14.1373 15.2115 14.1961 14.8654 14.6078C14.1154 15.5196 13.0192 16.0392 11.8654 16.0392C9.69231 16.0392 7.92308 14.2255 7.92308 12C7.92308 9.77451 9.69231 7.96078 11.8654 7.96078C13.25 7.96078 14.5192 8.70588 15.2115 9.88235H13.6346C13.1058 9.88235 12.6731 10.3235 12.6731 10.8627C12.6731 11.402 13.1058 11.8431 13.6346 11.8431H17.0385C17.5673 11.8431 18 11.402 18 10.8627V7.37255C18 6.83333 17.5673 6.39216 17.0385 6.39216V6.38235Z" fill="#858585"/>
<path d="M18 2H6C3.79 2 2 3.79539 2 6.01204V17.988C2 20.2046 3.79 22 6 22H18C20.21 22 22 20.2046 22 17.988V6.01204C22 3.79539 20.21 2 18 2ZM20 17.988C20 19.0913 19.1 19.994 18 19.994H6C4.9 19.994 4 19.0913 4 17.988V6.01204C4 4.90873 4.9 4.00602 6 4.00602H18C19.1 4.00602 20 4.90873 20 6.01204V17.988Z" fill="#858585"/>
</svg>
