<svg width="24" height="24" viewBox="0 0 24 24" fill="none" xmlns="http://www.w3.org/2000/svg">
<path d="M12 14C9.79 14 8 12.2 8 10C8 7.8 9.8 6 12 6C14.2 6 16 7.8 16 10C16 12.2 14.2 14 12 14ZM12 7.99C10.9 7.99 10 8.89 10 9.99C10 11.09 10.9 11.99 12 11.99C13.1 11.99 14 11.09 14 9.99C14 8.89 13.1 7.99 12 7.99Z" fill="#fff"/>
<path d="M22 12C22 6.48589 17.5141 2 12 2C6.48589 2 2 6.48589 2 12C2 17.5141 6.48589 22 12 22C14.1169 22 16.0827 21.3347 17.6956 20.2056C17.7762 20.1552 17.8468 20.1048 17.9173 20.0444C20.3871 18.2198 22 15.2964 22 12ZM4.01613 12C4.01613 7.59476 7.59476 4.01613 12 4.01613C16.4052 4.01613 19.9839 7.59476 19.9839 12C19.9839 14.0565 19.1976 15.9315 17.9173 17.3427C17.4738 16.244 16.506 15.3669 15.2964 15.0948C14.9839 15.0242 14.6512 14.9839 14.3286 14.9839H9.67137C9.34879 14.9839 9.01613 15.0242 8.70363 15.0948C7.49395 15.3669 6.53629 16.2339 6.08266 17.3427C4.80242 15.9214 4.01613 14.0565 4.01613 12ZM7.82661 18.7944V18.7238C7.82661 17.9375 8.38105 17.2419 9.14718 17.0706C9.31855 17.0302 9.48992 17.0101 9.67137 17.0101H14.3286C14.5101 17.0101 14.6815 17.0302 14.8528 17.0706C15.619 17.2419 16.1835 17.9375 16.1835 18.7238V18.7944C14.9637 19.5504 13.5423 19.9839 12.0101 19.9839C10.4778 19.9839 9.04637 19.5403 7.83669 18.7944H7.82661Z" fill="#fff"/>
</svg>
