<svg width="24" height="24" viewBox="0 0 24 24" fill="none" xmlns="http://www.w3.org/2000/svg">
<path d="M15.4856 2.02041C14.3468 2.02041 13.3208 2.45918 12.5205 3.15306C11.71 2.41837 10.6532 2 9.51436 2C7.0212 2 5 4.0102 5 6.4898C5 8.96939 7.0212 10.9796 9.51436 10.9796C10.6327 10.9796 11.6792 10.5714 12.4897 9.84694C13.29 10.5612 14.3263 11 15.4856 11C17.9788 11 20 8.9898 20 6.5102C20 4.03061 17.9685 2.02041 15.4856 2.02041ZM9.51436 8.93878C8.16006 8.93878 7.05198 7.83673 7.05198 6.4898C7.05198 5.14286 8.16006 4.04082 9.51436 4.04082C10.2018 4.04082 10.8379 4.33673 11.2996 4.83673C11.0841 5.35714 10.961 5.91837 10.961 6.5102C10.961 7.10204 11.0841 7.64286 11.2791 8.15306C10.8174 8.64286 10.1915 8.93878 9.5041 8.93878H9.51436ZM15.4856 8.95918C14.1313 8.95918 13.0233 7.85714 13.0233 6.5102C13.0233 5.16327 14.1313 4.06122 15.4856 4.06122C16.8399 4.06122 17.948 5.16327 17.948 6.5102C17.948 7.85714 16.8399 8.95918 15.4856 8.95918Z" fill="#858585"/>
<path fill-rule="evenodd" clip-rule="evenodd" d="M22.0103 20.2V16.36C21.9103 14.33 20.6503 12.61 18.8303 12.14H18.8103C18.4503 12.05 18.0703 12 17.6903 12H12.3703C10.8503 12.03 9.53028 12.81 8.75028 14C8.29028 14.74 8.01028 15.64 8.02028 16.6V20.99C8.02028 21.54 8.47028 21.99 9.03028 21.99C9.59028 21.99 10.0303 21.54 10.0203 20.99V16.6C10.0203 15.4 10.7303 14.33 11.7103 14.08C11.9003 14.03 12.1003 14 12.3203 14H17.7003C17.9003 14 18.1003 14.03 18.3103 14.08C19.2903 14.33 20.0503 15.39 20.0303 16.6V20.99C20.0303 21.54 20.4403 21.99 20.9903 21.99H21.0103C21.5703 21.99 22.0203 21.54 22.0303 20.99V20.29C22.0303 20.29 22.0103 20.23 22.0103 20.2Z" fill="#858585"/>
<path d="M3.00023 21.9801C2.45023 21.9801 2.00023 21.5301 2.00023 20.9801V16.6001C1.98023 14.4701 3.28023 12.6401 5.15023 12.1501C5.32023 12.1101 5.50023 12.0701 5.67023 12.0501C6.22023 11.9801 6.72023 12.3601 6.79023 12.9101C6.86023 13.4601 6.48023 13.9601 5.93023 14.0301C5.83023 14.0401 5.74023 14.0601 5.65023 14.0901C4.68023 14.3401 3.98023 15.4001 3.98023 16.6001V20.9801C3.99023 21.5301 3.55023 21.9801 3.00023 21.9801Z" fill="#858585"/>
</svg>
