<?xml version="1.0" encoding="UTF-8"?>
<svg id="Layer_2" data-name="Layer 2" xmlns="http://www.w3.org/2000/svg" viewBox="0 0 383.14 385.09">
  <defs>
    <style>
      .cls-1 {
        fill: #f8f3ee;
        stroke-width: 0px;
      }
    </style>
  </defs>
  <g id="Layer_1-2" data-name="Layer 1">
    <g>
      <circle class="cls-1" cx="190.12" cy="80.44" r="80.44"/>
      <path class="cls-1" d="m383.13,68.82c.46-20.02-17.68-35.38-37.39-31.91l-.64.11c-15.07,2.66-25.9,15.65-26.32,30.95-1.66,59.79-45.16,112.34-106.31,123.13-69.89,12.32-136.77-34.51-149.09-104.4L0,97.87c10.31,58.48,46.1,106.19,93.93,133.75.05,1.34.16,2.71.39,4.13,2.73,16.82,15.54,88.45,18.74,106.39,3.2,17.92,20.96,40.29,48.96,42.73,28,2.45,49.08-15.71,55.6-33.59,6.52-17.87,26.77-73.49,36.96-101.51.48-1.31.83-2.59,1.13-3.86,74.83-26.99,125.62-97.88,127.43-177.09Z"/>
    </g>
  </g>
</svg>